<svg width="141" height="32" viewBox="0 0 141 32" fill="none" xmlns="http://www.w3.org/2000/svg">
<path d="M13.176 18.648V23.568C11.72 24.096 10.52 24.36 9.576 24.36C7.08 24.36 5.016 23.56 3.384 21.96C2.616 21.192 2.016 20.296 1.584 19.272C1.168 18.232 0.96 17.184 0.96 16.128C0.96 15.024 1.176 13.952 1.608 12.912C2.056 11.872 2.648 10.976 3.384 10.224C5.016 8.56 7.032 7.728 9.432 7.728C10.584 7.728 11.832 8 13.176 8.544V13.512C12.232 12.344 11.024 11.76 9.552 11.76C8.416 11.76 7.456 12.112 6.672 12.816C5.744 13.68 5.28 14.776 5.28 16.104C5.28 17.368 5.712 18.408 6.576 19.224C7.36 19.96 8.352 20.328 9.552 20.328C10.944 20.328 12.152 19.768 13.176 18.648ZM32.2575 6.504H36.0975V24H32.2575V6.504ZM44.7268 16.176C44.0708 16.176 43.4948 16.408 42.9988 16.872C42.5028 17.336 42.2548 17.92 42.2548 18.624C42.2548 19.264 42.5028 19.832 42.9988 20.328C43.4788 20.808 44.0548 21.048 44.7268 21.048C45.3828 21.048 45.9508 20.808 46.4308 20.328C46.9268 19.864 47.1748 19.296 47.1748 18.624C47.1748 17.952 46.9268 17.368 46.4308 16.872C45.9348 16.408 45.3668 16.176 44.7268 16.176ZM49.5028 14.688C50.6068 15.76 51.1588 17.072 51.1588 18.624C51.1588 20.176 50.6068 21.496 49.5028 22.584C48.3028 23.768 46.7028 24.36 44.7028 24.36C42.7188 24.36 41.1268 23.768 39.9268 22.584C38.8228 21.496 38.2708 20.176 38.2708 18.624C38.2708 17.072 38.8228 15.76 39.9268 14.688C41.1428 13.504 42.7348 12.912 44.7028 12.912C46.6548 12.912 48.2548 13.504 49.5028 14.688ZM53.3747 24V13.272H57.2147V15.024C57.5667 14.352 58.0707 13.856 58.7267 13.536C59.2547 13.248 59.9187 13.104 60.7187 13.104C60.7507 13.104 60.7907 13.112 60.8387 13.128C60.8867 13.128 60.9667 13.136 61.0787 13.152C61.2067 13.152 61.3427 13.152 61.4867 13.152V16.776C60.9747 16.52 60.4227 16.392 59.8307 16.392C59.0787 16.392 58.4947 16.584 58.0787 16.968C57.5027 17.496 57.2147 18.312 57.2147 19.416V24H53.3747ZM67.035 22.968V29.496H63.195V13.272H67.035V14.448C67.851 13.424 68.947 12.912 70.323 12.912C71.827 12.912 73.099 13.432 74.139 14.472C75.227 15.56 75.771 16.944 75.771 18.624C75.771 20.336 75.195 21.752 74.043 22.872C73.035 23.864 71.811 24.36 70.371 24.36C69.043 24.36 67.931 23.896 67.035 22.968ZM69.387 16.176C68.715 16.176 68.139 16.416 67.659 16.896C67.163 17.392 66.915 17.984 66.915 18.672C66.915 19.312 67.163 19.88 67.659 20.376C68.139 20.856 68.715 21.096 69.387 21.096C70.075 21.096 70.643 20.856 71.091 20.376C71.587 19.88 71.835 19.312 71.835 18.672C71.835 17.984 71.587 17.392 71.091 16.896C70.643 16.416 70.075 16.176 69.387 16.176ZM94.7888 6.504H98.6288V24H94.7888V6.504ZM105.314 23.712C104.818 24.208 104.234 24.456 103.562 24.456C102.89 24.456 102.306 24.208 101.81 23.712C101.314 23.216 101.066 22.632 101.066 21.96C101.066 21.288 101.314 20.704 101.81 20.208C102.306 19.712 102.89 19.464 103.562 19.464C104.234 19.464 104.826 19.72 105.338 20.232C105.802 20.696 106.034 21.272 106.034 21.96C106.034 22.648 105.794 23.232 105.314 23.712ZM116.804 14.304V13.272H120.644V24H116.804V22.824C116.068 23.848 114.956 24.36 113.468 24.36C111.964 24.36 110.676 23.792 109.604 22.656C108.58 21.568 108.068 20.256 108.068 18.72C108.068 16.96 108.62 15.528 109.724 14.424C110.732 13.416 112.02 12.912 113.588 12.912C114.9 12.912 115.972 13.376 116.804 14.304ZM114.452 16.176C113.812 16.176 113.252 16.408 112.772 16.872C112.26 17.368 112.004 17.952 112.004 18.624C112.004 19.328 112.252 19.912 112.748 20.376C113.26 20.856 113.836 21.096 114.476 21.096C115.132 21.096 115.708 20.848 116.204 20.352C116.684 19.872 116.924 19.296 116.924 18.624C116.924 17.936 116.676 17.352 116.18 16.872C115.684 16.408 115.108 16.176 114.452 16.176ZM123.289 24V13.272H127.129V15.024C127.481 14.352 127.985 13.856 128.641 13.536C129.169 13.248 129.833 13.104 130.633 13.104C130.665 13.104 130.705 13.112 130.753 13.128C130.801 13.128 130.881 13.136 130.993 13.152C131.121 13.152 131.257 13.152 131.401 13.152V16.776C130.889 16.52 130.337 16.392 129.745 16.392C128.993 16.392 128.409 16.584 127.993 16.968C127.417 17.496 127.129 18.312 127.129 19.416V24H123.289ZM139.893 16.416H137.709V24H133.869V16.416H132.645V13.272H133.869V9.744H137.709V13.272H139.893V16.416Z" fill="#F5B895"/>
<path d="M28.9981 19.5762C29.0756 16.4512 26.8042 15.4049 26.3659 11.2387C25.9874 7.63748 27.8738 5 27.2704 5C25.1845 5 16.0369 10.9187 16.0001 18.7074C15.9848 21.9574 18.5318 25.0224 22.2806 24.9999C25.7879 24.9786 28.9218 22.6811 28.9981 19.5762Z" fill="#29669B"/>
<path d="M78.0019 17.4238C77.9244 20.5488 80.1958 21.5951 80.6341 25.7613C81.0126 29.3625 79.1262 32 79.7296 32C81.8155 32 90.9631 26.0813 90.9999 18.2926C91.0152 15.0426 88.4682 11.9776 84.7194 12.0001C81.2121 12.0214 78.0782 14.3189 78.0019 17.4238Z" fill="#29669B"/>
</svg>
